<?xml version="1.0" encoding="UTF-8" standalone="no"?>
<!-- Created with Inkscape (http://www.inkscape.org/) -->

<svg
   xmlns:dc="http://purl.org/dc/elements/1.1/"
   xmlns:cc="http://creativecommons.org/ns#"
   xmlns:rdf="http://www.w3.org/1999/02/22-rdf-syntax-ns#"
   xmlns:svg="http://www.w3.org/2000/svg"
   xmlns="http://www.w3.org/2000/svg"
   xmlns:sodipodi="http://sodipodi.sourceforge.net/DTD/sodipodi-0.dtd"
   xmlns:inkscape="http://www.inkscape.org/namespaces/inkscape"
   id="svg2"
   version="1.1"
   inkscape:version="0.91 r13725"
   xml:space="preserve"
   width="198.58749"
   height="125.7875"
   viewBox="0 0 198.58749 125.7875"
   sodipodi:docname="logo_pl.svg"><metadata
     id="metadata8"><rdf:RDF><cc:Work
         rdf:about=""><dc:format>image/svg+xml</dc:format><dc:type
           rdf:resource="http://purl.org/dc/dcmitype/StillImage" /><dc:title></dc:title></cc:Work></rdf:RDF></metadata><defs
     id="defs6" /><sodipodi:namedview
     pagecolor="#ffffff"
     bordercolor="#666666"
     borderopacity="1"
     objecttolerance="10"
     gridtolerance="10"
     guidetolerance="10"
     inkscape:pageopacity="0"
     inkscape:pageshadow="2"
     inkscape:window-width="873"
     inkscape:window-height="480"
     id="namedview4"
     showgrid="false"
     inkscape:zoom="1.8761801"
     inkscape:cx="99.293747"
     inkscape:cy="62.893749"
     inkscape:window-x="901"
     inkscape:window-y="303"
     inkscape:window-maximized="0"
     inkscape:current-layer="g10" /><g
     id="g10"
     inkscape:groupmode="layer"
     inkscape:label="ink_ext_XXXXXX"
     transform="matrix(1.25,0,0,-1.25,0,125.7875)"><g
       id="g12"
       transform="scale(0.1,0.1)"><path
         d="m 1431.16,102.324 c 5.28,7.313 11.14,14.356 17.59,21.035 6.48,6.7 13.32,12.832 20.48,18.368 l -7.67,-30.692 -30.4,-8.711"
         style="fill:#d3d2d2;fill-opacity:1;fill-rule:nonzero;stroke:none"
         id="path14"
         inkscape:connector-curvature="0" /><path
         d="m 1484.31,89.0625 c -8.96,0.9102 -17.99,2.4609 -27.01,4.7148 -9.04,2.2461 -17.77,5.1172 -26.15,8.5467 l 30.41,8.711 22.75,-21.9725"
         style="fill:#4f4c4c;fill-opacity:1;fill-rule:nonzero;stroke:none"
         id="path16"
         inkscape:connector-curvature="0" /><path
         d="m 1469.23,141.719 c 3.68,-8.223 6.85,-16.817 9.41,-25.742 2.57,-8.957 4.46,-17.9497 5.68,-26.9145 l -22.76,21.9725 7.67,30.684"
         style="fill:#918f90;fill-opacity:1;fill-rule:nonzero;stroke:none"
         id="path18"
         inkscape:connector-curvature="0" /><path
         d="m 1420.41,39.2383 c -5.31,7.2734 -10.21,15.0273 -14.56,23.2226 -4.37,8.2227 -8.08,16.6329 -11.15,25.1446 l 26.82,-16.7657 -1.11,-31.6015"
         style="fill:#918f90;fill-opacity:1;fill-rule:nonzero;stroke:none"
         id="path20"
         inkscape:connector-curvature="0" /><path
         d="m 1449.45,85.6914 c -3.64,-8.25 -7.91,-16.3555 -12.83,-24.2383 -4.93,-7.8984 -10.36,-15.3125 -16.21,-22.2265 l 1.11,31.6132 27.93,14.8516"
         style="fill:#4f4c4c;fill-opacity:1;fill-rule:nonzero;stroke:none"
         id="path22"
         inkscape:connector-curvature="0" /><path
         d="m 1394.71,87.6055 c 8.97,0.9804 18.11,1.3281 27.39,1.0078 9.31,-0.3242 18.45,-1.3164 27.35,-2.9219 l -27.93,-14.8516 -26.81,16.7657"
         style="fill:#d3d2d2;fill-opacity:1;fill-rule:nonzero;stroke:none"
         id="path24"
         inkscape:connector-curvature="0" /><path
         d="m 1477.1,9.51953 c -8.56,-2.82031 -17.45,-5.0664 -26.59,-6.67578 -9.18,-1.62109 -18.32,-2.550781 -27.37,-2.8320312 L 1447.38,20.3438 1477.1,9.51953"
         style="fill:#4f4c4c;fill-opacity:1;fill-rule:nonzero;stroke:none"
         id="path26"
         inkscape:connector-curvature="0" /><path
         d="m 1441.89,51.4922 c 6.72,-6.0156 13.11,-12.5781 19.09,-19.6953 5.98,-7.1289 11.36,-14.5781 16.12,-22.27737 l -29.72,10.82427 -5.49,31.1484"
         style="fill:#918f90;fill-opacity:1;fill-rule:nonzero;stroke:none"
         id="path28"
         inkscape:connector-curvature="0" /><path
         d="m 1423.14,0.0195313 c 1.84,8.8281287 4.34,17.6367687 7.52,26.3671687 3.19,8.75 6.95,17.1367 11.23,25.1055 l 5.49,-31.1484 -24.24,-20.3242687"
         style="fill:#d3d2d2;fill-opacity:1;fill-rule:nonzero;stroke:none"
         id="path30"
         inkscape:connector-curvature="0" /><path
         d="m 1522.87,54.2461 c 0.03,-9.0234 -0.57,-18.1602 -1.85,-27.3516 -1.3,-9.2304 -3.23,-18.21481 -5.77,-26.8945 l -11.86,29.3164 19.48,24.9297"
         style="fill:#918f90;fill-opacity:1;fill-rule:nonzero;stroke:none"
         id="path32"
         inkscape:connector-curvature="0" /><path
         d="m 1472.08,33.7227 c 7.79,4.539 16.01,8.5898 24.61,12.0664 8.65,3.4961 17.39,6.3086 26.19,8.457 l -19.49,-24.9297 -31.31,4.4063"
         style="fill:#d3d2d2;fill-opacity:1;fill-rule:nonzero;stroke:none"
         id="path34"
         inkscape:connector-curvature="0" /><path
         d="m 1515.25,0 c -7.84,4.48047 -15.45,9.57031 -22.77,15.293 -7.34,5.7304 -14.15,11.9023 -20.41,18.4375 L 1503.39,29.3164 1515.25,0"
         style="fill:#4f4c4c;fill-opacity:1;fill-rule:nonzero;stroke:none"
         id="path36"
         inkscape:connector-curvature="0" /><path
         d="m 1494.47,111.594 c 8.61,-2.754 17.1,-6.156 25.45,-10.215 8.38,-4.0938 16.31,-8.7149 23.79,-13.8009 l -31.54,-2.207 -17.7,26.2229"
         style="fill:#918f90;fill-opacity:1;fill-rule:nonzero;stroke:none"
         id="path38"
         inkscape:connector-curvature="0" /><path
         d="m 1498.3,56.9414 c -1.91,8.8203 -3.22,17.8945 -3.87,27.1524 -0.65,9.2929 -0.62,18.4842 0.04,27.5082 l 17.7,-26.2309 -13.87,-28.4297"
         style="fill:#d3d2d2;fill-opacity:1;fill-rule:nonzero;stroke:none"
         id="path40"
         inkscape:connector-curvature="0" /><path
         d="m 1543.75,87.5781 c -6.68,-6.0547 -13.92,-11.7304 -21.61,-16.9258 -7.71,-5.2031 -15.69,-9.7734 -23.85,-13.7109 l 13.88,28.4297 31.58,2.207"
         style="fill:#4f4c4c;fill-opacity:1;fill-rule:nonzero;stroke:none"
         id="path42"
         inkscape:connector-curvature="0" /><path
         d="m 1046.4,34.1484 -0.08,5.7227 -41.16,0 0,21.7109 39.06,0 0,5.6368 -39.06,0 0,19.707 40.68,0 0,5.7187 -46.746,0 0,-58.4961 47.306,0 z m 178.11,0.0625 47.15,0 0,5.7188 -41.17,0 0,21.7187 39.06,0 0,5.625 -39.06,0 0,19.7071 40.69,0 0,5.7343 -46.75,0 0.08,-58.5039 z m -252.897,58.75 8.575,0 0,-58.7421 -6.016,0 0,50.7226 -26.055,-50.7226 -5.617,0 -25.801,50.8085 -0.156,-50.8085 -6.035,0 0,58.7421 8.828,0 26.144,-51.0976 26.133,51.0976 z m 154.267,-0.0312 8.58,0 0,-58.7422 -6.02,0 0,50.7227 -26.07,-50.7227 -5.6,0 -25.79,50.8008 -0.17,-50.8008 -6.03,0 0,58.7422 8.83,0 26.15,-51.0938 26.12,51.0938 z m 33.67,-5.6641 26.09,0 c 6.64,0 11.38,-2.3164 11.38,-9.4922 0,-7.8242 -5.24,-10.4609 -13.43,-10.4609 l -24.04,0 0,19.9531 z m -6,-53.039 32.49,0 c 8.99,0 19.26,4.4531 19.26,16.7109 0,7.4805 -4.62,13.1328 -12.29,14.2852 6.93,1.8281 10.02,7.1132 10.02,12.8046 0,8.3204 -4.78,14.754 -16.24,14.754 l -33.24,0 0,-58.5547 z m 6,27.5703 26.99,0 c 7.03,0 12.28,-2.3828 12.28,-10.8594 0,-8.0781 -5.92,-11.1914 -13.76,-11.1914 l -25.51,0 0,22.0508 z m 159.77,3.5742 -23.21,0 0,21.6211 24.07,0 c 9.23,0 13.73,-3.332 13.73,-10.1875 0,-7.6953 -4.78,-11.4336 -14.59,-11.4336 z m 21.2,-29.2773 c -0.95,1.8281 -1.28,5.4492 -1.38,14.914 -0.1,5.7774 -3.26,10 -8.29,11.8516 6.56,2.9414 9.24,8.8867 9.24,13.7617 0,10.8281 -6.6,16.1016 -20.22,16.1016 l -29.85,0 0,-58.5039 6.09,0 0,25.4296 23.67,0 c 10.43,0 12.9,-2.0898 13.17,-11.1796 0.21,-9.504 0.63,-12.6211 1.89,-13.879 l 6.68,-0.371 -1,1.875 z M 32.4609,93.1055 l -5.5664,0 L 0,34.5977 l 6.60156,0 8.32034,18.0781 29.4726,0 8.2149,-18.0781 6.7578,0 -26.9063,58.5078 z M 17.4727,58.2891 29.6406,85.0117 41.875,58.2891 l -24.4023,0 z m 299.5973,28.75 c 9.239,0 13.711,-3.3282 13.711,-10.1836 0,-7.6953 -4.754,-11.4336 -14.578,-11.4336 l -23.215,0 0,21.6172 24.082,0 z m -30.164,5.7343 0,-58.5078 6.082,0 0,25.4297 23.684,0 c 10.43,0 12.891,-2.0898 13.144,-11.1797 0.243,-9.5039 0.653,-12.6172 1.922,-13.8789 l 6.653,-0.3711 -0.977,1.875 c -0.961,1.8282 -1.293,5.4532 -1.387,14.9063 -0.089,5.789 -3.261,10.0078 -8.293,11.8633 6.555,2.9375 9.25,8.8867 9.25,13.7617 0,10.8281 -6.613,16.1015 -20.207,16.1015 l -29.871,0 z m -46.613,-8.1054 12.227,-26.7071 -24.395,0 12.168,26.7071 z m -2.742,8.1054 -26.895,-58.5078 6.602,0 8.32,18.0782 29.461,0 8.223,-18.0782 6.769,0 -26.926,58.5078 -5.554,0 z m -79.883,0 0,-5.7343 22.656,0 0,-52.7735 6.004,0 0,52.7735 22.676,0 0,5.7343 -51.336,0 z M 95.625,53.4688 c -0.0078,-5.793 1.7109,-10.0625 5.09,-13.4805 4.512,-4.5195 12.527,-6.8242 22.598,-6.8242 5.632,0 24.949,1.25 24.949,17.2734 0,14.1016 -12.871,15.4102 -24.219,16.5547 -11.727,1.1836 -20.379,2.4726 -20.379,10.4375 0,3.9492 2.031,6.7969 6.207,8.7305 4.309,1.9843 8.957,2.2695 13.774,2.2695 3.71,0 10.507,-0.5703 14.343,-4.4063 1.778,-1.7656 2.688,-4.6093 2.688,-7.4023 l 5.906,-0.0664 c 0,4.293 -1.387,8.6211 -4.09,11.3281 -4.941,4.9375 -13.234,5.9727 -19.336,5.9727 -8.371,0 -16.621,-1.7969 -21.691,-6.8633 -2.6564,-2.6445 -4.0041,-5.8594 -4.0041,-9.5625 0,-13.8086 14.0621,-14.9297 25.0901,-15.9258 5.215,-0.4687 10.144,-0.918 13.797,-2.5195 3.879,-1.6797 5.675,-4.4805 5.675,-8.8008 0,-2.7422 -0.91,-5.0469 -2.714,-6.8438 -4.27,-4.2851 -13.157,-4.746 -16.379,-4.746 -7.969,0 -14.375,1.7187 -17.774,5.1054 -2.453,2.461 -3.691,5.4883 -3.73,9.7774 l -5.801,-0.0078 z m 726.445,39.3046 0,-58.5078 47.219,0 0,5.7227 -41.164,0 0,21.7226 39.063,0 0,5.625 -39.063,0 0,19.7032 40.684,0 0,5.7343 -46.739,0 z m -105.332,0 0,-48.8281 c -3.75,4.5625 -42.332,48.8281 -42.332,48.8281 l -6.105,0 0,-58.5078 6.027,0 0,48.8086 c 3.75,-4.5508 42.332,-48.8086 42.332,-48.8086 l 6.094,0 0,58.5078 -6.016,0 z m -149.09,0 0,-58.5078 6.036,0 0,58.5078 -6.036,0 z m -54.699,0 0,-58.5078 42.082,0 0,5.7227 -36.008,0 0,52.7851 -6.074,0 z m -55.203,0 0,-58.5078 42.156,0 0,5.7227 -36.062,0 0,52.7851 -6.094,0 z m 164.422,-8.1054 12.168,-26.7071 -24.395,0 12.227,26.7071 z m -2.832,8.1054 -26.895,-58.5078 6.711,0 8.231,18.0782 29.453,0 8.32,-18.0782 6.66,0 -26.816,58.5078 -5.664,0 z m -210.098,-8.1054 12.168,-26.7071 -24.414,0 12.246,26.7071 z m -2.812,8.1054 -26.903,-58.5078 6.7,0 8.242,18.0782 29.453,0 8.32,-18.0782 6.641,0 -26.789,58.5078 -5.664,0 z m 335.32,-29.3437 c 0,-18.4805 12.817,-30.4141 31.703,-30.4141 17.559,0 28.192,11.8867 29.61,23.6172 l 0.183,1.4219 -6.336,0 -0.199,-1.0625 c -2.019,-11.2617 -10.934,-18.2539 -23.258,-18.2539 -18.176,0 -25.441,12.7734 -25.441,24.7305 0,14.6171 10.527,24.8203 25.656,24.8203 11.524,0 19.813,-5.4961 22.164,-14.7149 l 0.246,-0.9765 6.34,0 -0.363,1.5742 c -2.879,12.6054 -13.231,19.832 -28.387,19.832 -21.476,0 -31.918,-15.8398 -31.918,-30.5742"
         style="fill:#231f20;fill-opacity:1;fill-rule:evenodd;stroke:none"
         id="path44"
         inkscape:connector-curvature="0" /><path
         d="m 1586.74,92.7539 1.94,0 0,-13.2226 -1.38,0 0,11.4257 -5.86,-11.4257 -1.25,0 -5.83,11.4453 -0.04,-11.4453 -1.36,0 0,13.2226 1.99,0 5.9,-11.5039 5.89,11.5039 z m -23.75,-13.2226 1.37,0 0,11.9726 5.18,0 0,1.25 -11.73,0 0,-1.25 5.18,0 0,-11.9726"
         style="fill:#231f20;fill-opacity:1;fill-rule:evenodd;stroke:none"
         id="path46"
         inkscape:connector-curvature="0" /><path
         d="m 658.125,591.289 60.508,121.356 c 7.449,-3.641 12.48,-11.59 12.48,-20.45 0,-4.199 -1.133,-8.14 -3.133,-11.504 l -52.082,-86.668 17.59,2.715 c 0.907,0.137 1.844,0.203 2.793,0.203 9.832,0 17.801,-7.976 17.801,-17.808 l 49.016,0 -4.407,5.547 -8.964,0 -1.981,2.711 26.063,0.011 c 2.812,-4.699 7.812,-7.929 13.593,-8.269 -0.273,-0.91 -0.547,-1.82 -0.839,-2.719 l -110.204,0 45.586,-34.98 c 5.047,-3.868 8.231,-10.047 8.231,-16.914 0,-5.907 -2.352,-11.356 -6.223,-15.235 l -68.316,67.129 -75.645,0 c -0.293,0.899 -0.578,1.809 -0.851,2.719 l 78.984,12.156"
         style="fill:#1a3171;fill-opacity:1;fill-rule:evenodd;stroke:none"
         id="path48"
         inkscape:connector-curvature="0" /><path
         d="m 574.699,609.973 c 0,59.957 48.614,108.562 108.574,108.562 59.961,0 108.575,-48.605 108.575,-108.562 0,-59.961 -48.614,-108.567 -108.575,-108.567 -59.96,0 -108.574,48.606 -108.574,108.567 z m -338.496,-96.203 177.762,0 c -16.875,28.117 -26.57,61.035 -26.57,96.21 0,144.356 117.031,261.375 261.394,261.375 l 894.891,-4.089 -46.18,-161.067 -176.54,0 -101.33,-353.496 -190.06,0.02 101.37,353.476 -178.37,0 c 16.875,-28.125 26.571,-61.035 26.571,-96.219 0,-144.355 -117.032,-261.367 -261.395,-261.367 l -4.699,0.02 -713.047,4.09 147.551,514.511 190.019,0 L 236.203,513.77"
         style="fill:#1a3171;fill-opacity:1;fill-rule:evenodd;stroke:none"
         id="path50"
         inkscape:connector-curvature="0" /><path
         d="m 1159,1006.3 14.48,0 -19.94,-69.534 -14.49,0 19.95,69.534 z m -291.703,0 14.48,0 -16.613,-57.941 31.859,0 -3.332,-11.593 -46.328,0 19.934,69.534 z m 467.753,-69.534 19.94,69.534 49.28,0 -3.32,-11.593 -36.02,0 -4.57,-15.937 29.93,0.019 -3.34,-11.594 -29.91,-0.007 -5.4,-18.829 36.02,0 -3.32,-11.593 -49.29,0 z m -56.94,69.534 -3.29,-11.593 38.4,0 c 0,0 -1.85,-0.469 -4.5,-2.902 l -47.22,-43.446 -3.3,-11.593 56.57,0 3.32,11.593 -38.5,0 c 0,0 2.23,0.743 4.55,2.871 l 47.24,43.489 3.34,11.581 -56.61,0 z m -72.06,-57.941 38.08,0 -3.32,-11.593 -35.23,0 c -14.66,0 -25.86,10.547 -21.9,24.375 l 7.7,26.847 c 3.26,11.375 15.31,18.302 26.8,18.302 l 15.71,0.01 c 14.34,0 25.63,-4.28 22.14,-16.476 l -4.42,-15.398 -13.69,0.008 3.87,13.496 c 0.92,3.261 -0.93,6.777 -4.76,6.777 l -20.22,0 c -5.58,0 -11.65,-4.68 -13.2,-10.109 l -6.1,-21.278 c -3.06,-10.656 1.92,-14.961 8.54,-14.961 z m -155.99,-11.593 19.92,69.534 18.16,0 14.56,-52.152 c 1.21,-4.285 1.21,-5.789 1.21,-5.789 l 16.62,57.941 12.38,0 -19.92,-69.534 -18.62,0 -14.14,52.129 c -1.01,3.769 -1.11,6.164 -1.11,6.164 l -16.69,-58.293 -12.37,0 z m -53.154,69.534 -3.324,-11.593 21.078,0 -16.621,-57.941 14.361,0 16.62,57.941 20.27,0 3.32,11.593 -55.704,0 z m -271.593,0 14.484,0 -19.942,-69.534 -14.484,0 19.942,69.534 z m -129.559,0 14.48,0 -19.929,-69.534 -14.485,0 19.934,69.534 z m -57.91,0 14.48,0 -16.609,-57.941 31.844,0 -3.321,-11.593 -46.336,0 19.942,69.534 z m 208.086,-69.534 19.941,69.524 49.285,0 -3.32,-11.583 -36.023,0 -4.563,-15.937 29.914,0.019 -3.332,-11.601 -29.902,0 -5.41,-18.829 36.027,0 -3.332,-11.593 -49.285,0 z m -129.551,0 19.922,69.534 18.152,0 14.57,-52.152 c 1.204,-4.285 1.204,-5.789 1.204,-5.789 l 16.621,57.941 12.382,0 -19.921,-69.534 -18.625,0 -14.129,52.129 c -1.016,3.769 -1.114,6.164 -1.114,6.164 l -16.691,-58.293 -12.371,0 z m 312.527,11.593 19.668,0 c 5.227,0 11.289,4.231 13.34,11.414 l 7.082,24.668 c 1.766,6.172 -3.43,10.176 -6.625,10.168 l -19.988,-0.039 c -5.555,-0.011 -11.531,-4.621 -13.086,-10.039 l -6.727,-23.429 c -2.531,-8.797 2.539,-12.743 6.336,-12.743 z m 14.942,57.841 19.523,0 c 10.195,0 22.125,-9.286 18.758,-21.044 l -8.418,-29.355 c -3.262,-11.367 -15.613,-19.035 -27.109,-19.035 l -15.34,0 c -14.641,0 -25.832,10.539 -21.875,24.336 l 7.691,26.82 c 3.254,11.363 15.317,18.278 26.77,18.278 z m -624.832,0.1 14.48,0 -19.941,-69.534 -14.481,0 19.942,69.534 z m 18.925,-34.769 20.586,-34.765 -14.484,0 -20.457,34.726 36.121,34.808 14.484,0 -36.25,-34.769 z m 57.911,34.769 14.48,0 -19.93,-69.534 -14.492,0 19.942,69.534 z m -106.426,-11.593 3.34,11.583 -33.313,0 c -9.129,0 -18.582,-4.38 -21.238,-13.634 l -3.164,-11.023 c -2.168,-7.563 2.168,-14.445 12.976,-14.445 l 16.231,0 c 2.324,0 5.539,-1.301 3.711,-7.637 l -0.801,-2.785 c -1.465,-5.106 -6.023,-8.407 -10.215,-8.407 l -31.426,0 -3.308,-11.593 34.859,0 c 9.184,0 19.856,3.586 23.363,15.761 l 2.461,8.567 c 3.485,12.129 -5.175,17.676 -13.527,17.676 l -15.293,0 c -2.156,0 -5.203,0.546 -3.965,4.851 l 1.153,4.043 c 1.574,5.481 4.55,7.043 8.664,7.043 l 29.492,0 z m -105.196,11.593 14.481,0 -16.609,-57.941 31.843,0 -3.32,-11.593 -46.328,0 19.933,69.534 z m 232.235,-69.534 19.941,69.524 49.289,0 -3.332,-11.583 -36.015,0 -4.559,-15.937 29.91,0.019 -3.328,-11.601 -29.914,0 -5.398,-18.829 36.023,0 -3.328,-11.593 -49.289,0 z M 50.7344,994.707 c 4.5508,0 5.2929,-3.898 4.5781,-6.406 l -2.3047,-8.039 c -1.8945,-6.532 -7.8047,-8.731 -11.0156,-8.731 l -17.625,0 6.6484,23.176 19.7188,0 z M 19.9414,1006.3 0,936.766 l 14.4844,0 7.0312,24.629 21.9414,0 c 7.1094,0 19.6016,3.468 22.6094,13.957 l 3.6328,12.683 c 3.8672,13.475 -7.8242,18.265 -12.9609,18.265 l -36.7969,0 z m 81.7886,-57.941 19.657,0 c 5.226,0 11.289,4.231 13.351,11.414 l 7.078,24.668 c 1.77,6.172 -3.437,10.176 -6.621,10.168 l -19.992,-0.039 c -5.555,-0.011 -11.531,-4.629 -13.082,-10.039 l -6.7304,-23.429 c -2.5273,-8.797 2.5313,-12.743 6.3394,-12.743 z m 14.93,57.841 19.524,0 c 10.195,0 22.136,-9.286 18.757,-21.044 l -8.406,-29.355 c -3.262,-11.367 -15.617,-19.035 -27.109,-19.035 l -15.344,0 c -14.6367,0 -25.8281,10.539 -21.875,24.336 l 7.6875,26.82 c 3.2618,11.363 15.3205,18.278 26.7655,18.278"
         style="fill:#1a3171;fill-opacity:1;fill-rule:evenodd;stroke:none"
         id="path52"
         inkscape:connector-curvature="0" /><path
         d="m 0,212.598 1543.7,0"
         style="fill:none;stroke:#231f20;stroke-width:3.52900004;stroke-linecap:butt;stroke-linejoin:miter;stroke-miterlimit:4;stroke-dasharray:none;stroke-opacity:1"
         id="path54"
         inkscape:connector-curvature="0" /></g></g></svg>